<svg width="100" height="100" viewBox="0 0 100 100" fill="none" xmlns="http://www.w3.org/2000/svg">
<path d="M0 30C0 13.4315 13.4315 0 30 0H70C86.5685 0 100 13.4315 100 30V70C100 86.5685 86.5685 100 70 100H30C13.4315 100 0 86.5685 0 70V30Z" fill="#7047EB"/>
<path d="M20.0001 27.0351C20.0005 23.3947 35.7885 15.6287 35.7895 18.7307C35.7906 21.8327 35.7895 45.2629 35.7895 45.2629H64.2106V18.7307C64.2106 15.5846 80 23.3946 80 27.0351V72.2107C80 75.7222 64.2106 83.5324 64.2106 80.1829V60.8831H35.7895V80.1829C35.7895 83.5324 19.9993 75.7283 20.0001 72.2107C20.0009 68.6932 19.9997 30.6755 20.0001 27.0351Z" fill="white"/>
</svg>
