<svg width="50" height="50" viewBox="0 0 50 50" fill="none" xmlns="http://www.w3.org/2000/svg">
<path d="M0 15C0 6.71573 6.71573 0 15 0H35C43.2843 0 50 6.71573 50 15V35C50 43.2843 43.2843 50 35 50H15C6.71573 50 0 43.2843 0 35V15Z" fill="white"/>
<path d="M10 13.5175C10.0002 11.6973 17.8942 7.81436 17.8948 9.36536C17.8953 10.9164 17.8948 22.6315 17.8948 22.6315H32.1053V9.36536C32.1053 7.79231 40 11.6973 40 13.5175V36.1054C40 37.8611 32.1053 41.7662 32.1053 40.0915V30.4416H17.8948V40.0915C17.8948 41.7662 9.99966 37.8641 10 36.1054C10.0004 34.3466 9.99984 15.3377 10 13.5175Z" fill="black"/>
</svg>
