<svg width="375" height="378" viewBox="0 0 375 378" fill="none" xmlns="http://www.w3.org/2000/svg">
<g clip-path="url(#clip0_271_2)">
<path d="M187.5 774C400.958 774 574 600.958 574 387.5C574 174.042 400.958 1 187.5 1C-25.9581 1 -199 174.042 -199 387.5C-199 600.958 -25.9581 774 187.5 774Z" stroke="#BDB6FC" stroke-width="2"/>
<g filter="url(#filter0_d_271_2)">
<path d="M187.5 698.941C359.167 698.941 498.331 559.778 498.331 388.11C498.331 216.443 359.167 77.2793 187.5 77.2793C15.8327 77.2793 -123.331 216.443 -123.331 388.11C-123.331 559.778 15.8327 698.941 187.5 698.941Z" stroke="#9B8DF8" stroke-width="2"/>
</g>
</g>
<defs>
<filter id="filter0_d_271_2" x="-194.331" y="6.2793" width="763.662" height="763.662" filterUnits="userSpaceOnUse" color-interpolation-filters="sRGB">
<feFlood flood-opacity="0" result="BackgroundImageFix"/>
<feColorMatrix in="SourceAlpha" type="matrix" values="0 0 0 0 0 0 0 0 0 0 0 0 0 0 0 0 0 0 127 0" result="hardAlpha"/>
<feOffset/>
<feGaussianBlur stdDeviation="35"/>
<feColorMatrix type="matrix" values="0 0 0 0 0.607843 0 0 0 0 0.552941 0 0 0 0 0.972549 0 0 0 1 0"/>
<feBlend mode="normal" in2="BackgroundImageFix" result="effect1_dropShadow_271_2"/>
<feBlend mode="normal" in="SourceGraphic" in2="effect1_dropShadow_271_2" result="shape"/>
</filter>
<clipPath id="clip0_271_2">
<rect width="375" height="378" fill="white"/>
</clipPath>
</defs>
</svg>
