<svg width="147" height="50" viewBox="0 0 147 50" fill="none" xmlns="http://www.w3.org/2000/svg">
<path d="M0 15C0 6.71573 6.71573 0 15 0H35C43.2843 0 50 6.71573 50 15V35C50 43.2843 43.2843 50 35 50H15C6.71573 50 0 43.2843 0 35V15Z" fill="#7047EB"/>
<path d="M10 13.5175C10.0002 11.6973 17.8942 7.81436 17.8948 9.36536C17.8953 10.9164 17.8948 22.6315 17.8948 22.6315H32.1053V9.36536C32.1053 7.79231 40 11.6973 40 13.5175V36.1054C40 37.8611 32.1053 41.7662 32.1053 40.0915V30.4416H17.8948V40.0915C17.8948 41.7662 9.99966 37.8641 10 36.1054C10.0004 34.3466 9.99984 15.3377 10 13.5175Z" fill="white"/>
<path d="M62.0394 35V14.6364H66.3448V23.0384H75.0849V14.6364H79.3803V35H75.0849V26.5881H66.3448V35H62.0394ZM89.7511 35.2983C88.2066 35.2983 86.8709 34.9702 85.744 34.3139C84.6237 33.651 83.7586 32.7296 83.1488 31.5497C82.5389 30.3632 82.234 28.9877 82.234 27.4233C82.234 25.8456 82.5389 24.4669 83.1488 23.2869C83.7586 22.1004 84.6237 21.179 85.744 20.5227C86.8709 19.8598 88.2066 19.5284 89.7511 19.5284C91.2956 19.5284 92.628 19.8598 93.7482 20.5227C94.8751 21.179 95.7435 22.1004 96.3533 23.2869C96.9632 24.4669 97.2681 25.8456 97.2681 27.4233C97.2681 28.9877 96.9632 30.3632 96.3533 31.5497C95.7435 32.7296 94.8751 33.651 93.7482 34.3139C92.628 34.9702 91.2956 35.2983 89.7511 35.2983ZM89.771 32.017C90.4736 32.017 91.0603 31.8182 91.5309 31.4205C92.0015 31.0161 92.3562 30.4659 92.5948 29.7699C92.8401 29.0739 92.9627 28.2817 92.9627 27.3935C92.9627 26.5052 92.8401 25.7131 92.5948 25.017C92.3562 24.321 92.0015 23.7708 91.5309 23.3665C91.0603 22.9621 90.4736 22.7599 89.771 22.7599C89.0617 22.7599 88.4651 22.9621 87.9812 23.3665C87.5039 23.7708 87.1426 24.321 86.8974 25.017C86.6587 25.7131 86.5394 26.5052 86.5394 27.3935C86.5394 28.2817 86.6587 29.0739 86.8974 29.7699C87.1426 30.4659 87.5039 31.0161 87.9812 31.4205C88.4651 31.8182 89.0617 32.017 89.771 32.017ZM99.9428 35V32.4744L107.42 23.2173V23.108H100.201V19.7273H112.521V22.4815L105.501 31.5099V31.6193H112.779V35H99.9428ZM115.939 35V32.4744L123.416 23.2173V23.108H116.197V19.7273H128.517V22.4815L121.497 31.5099V31.6193H128.776V35H115.939ZM134.63 40.7273C134.093 40.7273 133.589 40.6842 133.118 40.598C132.654 40.5185 132.27 40.4157 131.965 40.2898L132.919 37.1278C133.417 37.2803 133.864 37.3632 134.262 37.3764C134.666 37.3897 135.014 37.2969 135.306 37.098C135.604 36.8991 135.846 36.5611 136.032 36.0838L136.28 35.4375L130.801 19.7273H135.256L138.418 30.9432H138.577L141.769 19.7273H146.253L140.317 36.6506C140.032 37.4725 139.644 38.1884 139.154 38.7983C138.67 39.4148 138.057 39.8887 137.314 40.2202C136.572 40.5582 135.677 40.7273 134.63 40.7273Z" fill="white"/>
</svg>
